<svg xmlns="http://www.w3.org/2000/svg" viewBox="-4 -4 100 62">
<path d="m.2 45.5 7.7-7.6c3.6 4 7.3 6.1 12.6 6.1 4.3-.1 7.3-2.5 7.2-6.4v-.1c-.1-4.2-3.9-6.5-10.2-6.5h-4.7L11 23.8l12.2-12.6-20.4.3-.1-9.8 35-.4.1 8.6-13 12.6c7 1.1 14 4.7 14.1 14.3v.1c.1 9.8-6.9 17-18.4 17.2-9.3.2-15.8-3.4-20.3-8.6" fill="#005c9f"/>
<path d="M45.5 23.4v7.5S45 32 44 32.2c0 0-1.1.3-1.7-1v-7.3c0-.1.8-.7 3.2-.5m8.9 0v7.5s.5 1.1 1.5 1.3c0 0 1.1.3 1.7-1v-7.3c0-.1-.8-1-3.2-.5m-.5 8c-1.4 1.2-2.8 1.2-3.9 1.2-1.2 0-2.5 0-3.9-1.2 0 0-.8 1.7-2.5 1.4l5.6 6.8s.3.1.9.1c.5 0 .9-.1.9-.1l5.6-6.8c-2 .3-2.7-1.4-2.7-1.4m2.8-10.9H45.6c-2.2 0-2.4 1.7-2.4 1.7h11.3c2.1 0 2.2-1.7 2.2-1.7m0-2.9H45.6c-2.2 0-2.4 1.7-2.4 1.7h11.3c2.1 0 2.2-1.7 2.2-1.7m0-2.8H45.6c-2.2 0-2.4 1.7-2.4 1.7h11.3c2.1 0 2.2-1.7 2.2-1.7m-10.5 8.5v7.3c.5.3 2 1.2 3.8 1.1 1.8.1 3.3-.8 3.8-1.1v-7.3zm46 3v-.1C92 11.6 80.6.6 64.4.8L44.2 1l.2 12.4h11.3v-2.2l8.8-.1c9.3-.1 15.7 6.2 15.8 15.4v.1c.1 9.2-6.1 15.5-15.4 15.7l-8.8.1v-1.3H44.7l.1 11.7 20.2-.3c16.3-.2 27.4-11.6 27.2-26.2" fill="#f39209"/>
</svg>
