<svg xmlns="http://www.w3.org/2000/svg" xml:space="preserve" viewBox="0 0 320 54.2"><style>.st0{fill:#a9bdcb}</style><path d="m.2 45.5 7.7-7.6c3.6 4 7.3 6.1 12.6 6.1 4.3-.1 7.3-2.5 7.2-6.4v-.1c-.1-4.2-3.9-6.5-10.2-6.5h-4.7L11 23.8l12.2-12.6-20.4.3-.1-9.8 35-.4.1 8.6-13 12.6c7 1.1 14 4.7 14.1 14.3v.1c.1 9.8-6.9 17-18.4 17.2-9.3.2-15.8-3.4-20.3-8.6" class="st0"/><path d="M45.5 23.4v7.5S45 32 44 32.2c0 0-1.1.3-1.7-1v-7.3c0-.1.8-.7 3.2-.5m8.9 0v7.5s.5 1.1 1.5 1.3c0 0 1.1.3 1.7-1v-7.3c0-.1-.8-1-3.2-.5m-.5 8c-1.4 1.2-2.8 1.2-3.9 1.2-1.2 0-2.5 0-3.9-1.2 0 0-.8 1.7-2.5 1.4l5.6 6.8s.3.1.9.1c.5 0 .9-.1.9-.1l5.6-6.8c-2 .3-2.7-1.4-2.7-1.4m2.8-10.9H45.6c-2.2 0-2.4 1.7-2.4 1.7h11.3c2.1 0 2.2-1.7 2.2-1.7m0-2.9H45.6c-2.2 0-2.4 1.7-2.4 1.7h11.3c2.1 0 2.2-1.7 2.2-1.7m0-2.8H45.6c-2.2 0-2.4 1.7-2.4 1.7h11.3c2.1 0 2.2-1.7 2.2-1.7m-10.5 8.5v7.3c.5.3 2 1.2 3.8 1.1 1.8.1 3.3-.8 3.8-1.1v-7.3zm46 3v-.1C92 11.6 80.6.6 64.4.8L44.2 1l.2 12.4h11.3v-2.2l8.8-.1c9.3-.1 15.7 6.2 15.8 15.4v.1c.1 9.2-6.1 15.5-15.4 15.7l-8.8.1v-1.3H44.7l.1 11.7 20.2-.3c16.3-.2 27.4-11.6 27.2-26.2m36.3 26.3h11.7L119.8 1h-11.2L88.3 52.6h11.4l3.8-10.2h21.2zm-21.6-19.3L114 14l7.3 19.3zm33.2 8.9c3.6 7.1 11.2 11.4 21.3 11.4 12.1 0 20.5-6.6 20.5-15.8 0-7.3-4.9-12.2-13.9-14.7l-6.2-1.6c-6.5-1.7-8.9-3.3-8.9-6.4 0-3.4 3.4-5.6 8.2-5.6 5 0 9.3 2.4 11.2 5.9l8.9-4.8C177.8 4 170.2 0 161.2 0c-11.7 0-19.3 6.6-19.3 15.8 0 7.2 4.8 12 13.8 14.3l6.2 1.6c6.5 1.7 9 3.5 9 6.6 0 3.4-4 5.7-9.4 5.7-5.9 0-10.3-2.7-12.4-6.6z" style="fill:#a9bdcb"/><path d="m198.1 30.1 3.2-10.8h1.6l3.2 10.8 3.4-10.9h1.6l-4.3 13h-1.5L202 21.7l-3.3 10.5h-1.5l-4.3-13h1.6zm16.3 2.1H213v-13h1.5v13zm11.6 0-3.3-4.8c-.3 0-.7.1-1 .1H219v4.8h-1.5v-13h4.2c3.4 0 5.4 1.6 5.4 4.1 0 1.8-1 3.1-2.9 3.7l3.6 5.1zm-4.4-6.1c2.5 0 3.9-1 3.9-2.8s-1.4-2.8-3.9-2.8h-2.7v5.6zm16.5 6.1h-4.5v-13h4.5c4.2 0 6.8 2.6 6.8 6.5s-2.6 6.5-6.8 6.5m0-11.6h-3v10.3h3c3.3 0 5.3-2 5.3-5.1 0-3.2-1.9-5.2-5.3-5.2m17.7 11.6-3.3-4.8c-.3 0-.7.1-1 .1h-2.7v4.8h-1.5v-13h4.2c3.4 0 5.4 1.6 5.4 4.1 0 1.8-1 3.1-2.9 3.7l3.6 5.1zm-4.4-6.1c2.5 0 3.9-1 3.9-2.8s-1.4-2.8-3.9-2.8h-2.7v5.6zm7.8-6.8h1.5v7.3c0 3 1.3 4.5 3.8 4.5s3.8-1.5 3.8-4.5v-7.3h1.5v7.3c0 3.8-1.9 5.9-5.3 5.9s-5.3-2-5.3-5.9zm19.4-.3c2.3 0 4.3 1.1 5.4 2.8l-1.2.7c-.9-1.4-2.4-2.2-4.2-2.2-3-.1-5.1 2.4-5.1 5.4s2.1 5.4 5.1 5.4c1.8 0 3.2-.8 4.2-2.2l1.2.7c-1.2 1.7-3.1 2.8-5.4 2.8-3.7.1-6.6-3-6.5-6.7-.1-3.7 2.8-6.7 6.5-6.7m15.8 13.2-6.6-6.3v6.3h-1.5v-13h1.5v6.2l6.2-6.2h1.9l-6.5 6.5 6.8 6.5zm12.3-11.6h-7.3V25h6.6v1.3h-6.6v4.5h7.5v1.3h-9v-13h8.8zm11.7 9.2V19.3h1.5v13h-1.4l-7.8-10.5v10.5h-1.5v-13h1.4zM198.6 53.6h-4.5v-13h4.5c4.2 0 6.8 2.6 6.8 6.5 0 3.8-2.6 6.5-6.8 6.5m0-11.7h-3v10.3h3c3.3 0 5.3-2 5.3-5.1s-2-5.2-5.3-5.2m10.6 11.7h-1.5v-13h1.5zm11.5 0-3.3-4.8c-.3 0-.7.1-1 .1h-2.7v4.8h-1.5v-13h4.2c3.4 0 5.4 1.6 5.4 4.1 0 1.8-1 3.1-2.9 3.7l3.6 5.1zm-4.4-6.1c2.5 0 3.9-1 3.9-2.8s-1.4-2.8-3.9-2.8h-2.7v5.6zm16.5 6.1h-4.5v-13h4.5c4.2 0 6.8 2.6 6.8 6.5 0 3.8-2.6 6.5-6.8 6.5m0-11.7h-3v10.3h3c3.3 0 5.3-2 5.3-5.1s-1.9-5.2-5.3-5.2m16.3 8.3h-6.3l-1.4 3.4h-1.5l5.3-13h1.5l5.3 13h-1.6zm-.5-1.3-2.7-6.5-2.7 6.5zm5.3 1.6c.6 1.2 2.1 2 3.9 2 1.9 0 3.4-.9 3.4-2.3 0-1.2-.9-1.8-2.8-2.3l-1.7-.4c-2.4-.6-3.6-1.7-3.6-3.4 0-2.1 2-3.6 4.6-3.6 1 0 2 .2 2.8.7.9.5 1.5 1 1.9 1.7l-1.2.7c-.6-1-2-1.8-3.5-1.8-1.7 0-3.1.9-3.1 2.2 0 1.1.9 1.8 2.8 2.3l1.7.4c2.4.6 3.6 1.7 3.6 3.5 0 2.2-2.1 3.7-4.9 3.7-1.2 0-2.2-.2-3.1-.7s-1.6-1.1-2-1.9zm11.9 1.2c.6 0 1.1.5 1.1 1 0 .6-.5 1-1.1 1s-1.1-.5-1.1-1c0-.6.4-1 1.1-1m.6-1.7h-1.3l-.2-9.4h1.7z" class="st0"/></svg>